# xmcd
#
# Track frame offsets:
#	180
#	23478
#	52882
#	81398
#	104852
#	137399
#	171824
#	195253
#	216879
#
# Disc length: 3154 seconds
#
# Revision: 1
# Processed by: cddbd v1.5.2PL0 Copyright (c) Steve Scherf et al.
# Submitted via: audiograbber 1.83.01
#
DISCID=710c5009
DTITLE=Dieter Köhnlein and Volker Schlott - sweet bAllAd sweet
DYEAR=1997
DGENRE=Jazz
TTITLE0=Tender Smile
TTITLE1=She Gave Me The Eye
TTITLE2=Illuminating
TTITLE3=Dialogue Of Styles
TTITLE4=Sweetism
TTITLE5=Model T
TTITLE6=Heart Times
TTITLE7=Sweet 'N' Sour
TTITLE8=Children's Eyes
EXTD=YEAR: 1997
EXTT0=
EXTT1=
EXTT2=
EXTT3=
EXTT4=
EXTT5=
EXTT6=
EXTT7=
EXTT8=
PLAYORDER=
